<svg width="32" height="32" viewBox="0 0 32 32" fill="none" xmlns="http://www.w3.org/2000/svg">
<g clip-path="url(#clip0_3256_2714)">
<path fill-rule="evenodd" clip-rule="evenodd" d="M16.0002 -0.00170898C23.2788 -0.00170898 29.3442 6.06366 29.3442 13.3423C29.3442 15.7178 28.5276 18.0606 27.3865 20.1832C26.2409 22.3141 24.7244 24.3036 23.2178 25.9975C21.7083 27.6947 20.1831 29.1235 18.9947 30.1331C18.4012 30.6373 17.8817 31.0454 17.4811 31.3344C17.2833 31.4772 17.098 31.6027 16.938 31.6987C16.8601 31.7454 16.7653 31.7992 16.6644 31.8459C16.6141 31.8689 16.5419 31.9 16.4557 31.9275C16.3879 31.9492 16.2184 32 16.0002 32C15.7801 32 15.6093 31.9483 15.5413 31.9264C15.4546 31.8983 15.3821 31.867 15.3318 31.8437C15.2307 31.7964 15.1358 31.7423 15.0579 31.6951C14.898 31.5982 14.7128 31.4716 14.5151 31.3278C14.1148 31.0368 13.5955 30.6259 13.0022 30.1184C11.8145 29.1027 10.29 27.6665 8.78122 25.9647C7.27546 24.2664 5.75973 22.275 4.61449 20.1491C3.47417 18.0324 2.65625 15.6992 2.65625 13.3423C2.65625 6.06366 8.72161 -0.00170898 16.0002 -0.00170898Z" fill="#F05F43"/>
<circle cx="16.0001" cy="12.8" r="5.33333" fill="white"/>
</g>
<defs>
<clipPath id="clip0_3256_2714">
<rect width="32" height="32" fill="white"/>
</clipPath>
</defs>
</svg>
