<svg width="32" height="32" viewBox="0 0 32 32" fill="none" xmlns="http://www.w3.org/2000/svg">
<g clip-path="url(#clip0_3256_2713)">
<path fill-rule="evenodd" clip-rule="evenodd" d="M16.0002 -0.00170898C23.2788 -0.00170898 29.3442 6.06366 29.3442 13.3423C29.3442 15.7178 28.5276 18.0606 27.3865 20.1832C26.2409 22.3141 24.7244 24.3036 23.2178 25.9975C21.7083 27.6947 20.1831 29.1235 18.9947 30.1331C18.4012 30.6373 17.8817 31.0454 17.4811 31.3344C17.2833 31.4772 17.098 31.6027 16.938 31.6987C16.8601 31.7454 16.7653 31.7992 16.6644 31.8459C16.6141 31.8689 16.5419 31.9 16.4557 31.9275C16.3879 31.9492 16.2184 32 16.0002 32C15.7801 32 15.6093 31.9483 15.5413 31.9264C15.4546 31.8983 15.3821 31.867 15.3318 31.8436C15.2307 31.7964 15.1358 31.7423 15.0579 31.6951C14.898 31.5982 14.7128 31.4716 14.5151 31.3278C14.1148 31.0368 13.5955 30.6259 13.0022 30.1184C11.8145 29.1027 10.29 27.6665 8.78122 25.9647C7.27546 24.2664 5.75973 22.275 4.61449 20.1491C3.47417 18.0324 2.65625 15.6992 2.65625 13.3423C2.65625 6.06366 8.72161 -0.00170898 16.0002 -0.00170898Z" fill="#F05F43"/>
<path fill-rule="evenodd" clip-rule="evenodd" d="M9.73595 7C10.1424 7 10.4719 7.3295 10.4719 7.73595V10.1891C10.4719 10.6446 10.6528 11.0814 10.9749 11.4034C11.1152 11.5437 11.2773 11.6572 11.4532 11.7407V7.73595C11.4532 7.3295 11.7827 7 12.1891 7C12.5956 7 12.9251 7.3295 12.9251 7.73595V11.7407C13.1024 11.6565 13.2643 11.5425 13.4034 11.4034C13.5629 11.2439 13.6893 11.0546 13.7756 10.8463C13.8619 10.6379 13.9064 10.4146 13.9064 10.1891V7.73595C13.9064 7.3295 14.2358 7 14.6423 7C15.0488 7 15.3783 7.3295 15.3783 7.73595V10.1891C15.3783 10.6079 15.2958 11.0226 15.1355 11.4096C14.9752 11.7965 14.7403 12.148 14.4442 12.4442C14.148 12.7403 13.7965 12.9752 13.4096 13.1355C13.3311 13.168 13.2514 13.1973 13.1709 13.2234V19.733C13.1709 20.2749 12.7315 20.7143 12.1896 20.7143C11.6477 20.7143 11.2083 20.2749 11.2083 19.733V13.2237C10.7322 13.0698 10.2945 12.8046 9.93407 12.4442C9.336 11.8461 9 11.0349 9 10.1891V7.73595C9 7.3295 9.3295 7 9.73595 7ZM19.5979 7C17.8593 7 16.712 8.6945 16.712 10.4235C16.712 11.8015 17.4407 13.1575 18.6167 13.6514V19.733C18.6167 20.275 19.056 20.7143 19.5979 20.7143C20.1399 20.7143 20.5792 20.275 20.5792 19.733V13.6514C21.7553 13.1575 22.484 11.8015 22.484 10.4235C22.484 8.6945 21.3367 7 19.5979 7Z" fill="white"/>
</g>
<defs>
<clipPath id="clip0_3256_2713">
<rect width="32" height="32" fill="white"/>
</clipPath>
</defs>
</svg>
